<?xml version="1.0" standalone="no"?><svg xmlns="http://www.w3.org/2000/svg" viewBox="0 0 1440 320"><path fill="#252422" fill-opacity="1" d="M0,64L11.4,80C22.9,96,46,128,69,133.3C91.4,139,114,117,137,101.3C160,85,183,75,206,64C228.6,53,251,43,274,42.7C297.1,43,320,53,343,69.3C365.7,85,389,107,411,138.7C434.3,171,457,213,480,213.3C502.9,213,526,171,549,160C571.4,149,594,171,617,165.3C640,160,663,128,686,117.3C708.6,107,731,117,754,149.3C777.1,181,800,235,823,256C845.7,277,869,267,891,250.7C914.3,235,937,213,960,208C982.9,203,1006,213,1029,218.7C1051.4,224,1074,224,1097,213.3C1120,203,1143,181,1166,176C1188.6,171,1211,181,1234,154.7C1257.1,128,1280,64,1303,80C1325.7,96,1349,192,1371,218.7C1394.3,245,1417,203,1429,181.3L1440,160L1440,0L1428.6,0C1417.1,0,1394,0,1371,0C1348.6,0,1326,0,1303,0C1280,0,1257,0,1234,0C1211.4,0,1189,0,1166,0C1142.9,0,1120,0,1097,0C1074.3,0,1051,0,1029,0C1005.7,0,983,0,960,0C937.1,0,914,0,891,0C868.6,0,846,0,823,0C800,0,777,0,754,0C731.4,0,709,0,686,0C662.9,0,640,0,617,0C594.3,0,571,0,549,0C525.7,0,503,0,480,0C457.1,0,434,0,411,0C388.6,0,366,0,343,0C320,0,297,0,274,0C251.4,0,229,0,206,0C182.9,0,160,0,137,0C114.3,0,91,0,69,0C45.7,0,23,0,11,0L0,0Z"></path></svg>